<?xml version="1.0" encoding="utf-8"?>
<!-- Generator: Adobe Illustrator 23.0.3, SVG Export Plug-In . SVG Version: 6.00 Build 0)  -->
<svg version="1.1" id="Livello_1" xmlns="http://www.w3.org/2000/svg" xmlns:xlink="http://www.w3.org/1999/xlink" x="0px" y="0px"
	 viewBox="0 0 48 48" style="enable-background:new 0 0 48 48;" xml:space="preserve">
<style type="text/css">
	.st0{fill-rule:evenodd;clip-rule:evenodd;fill:#F06061;}
</style>
<title>Group</title>
<desc>Created with Sketch.</desc>
<g id="Page-1">
	<g id="Artboard-Copy-7" transform="translate(-114.000000, -607.000000)">
		<g id="Group" transform="translate(114.000000, 607.000000)">
			<path id="Fill-1" class="st0" d="M17.9,12.4h-4c-0.5,0-1,0.4-1,1v4c0,0.5,0.4,1,1,1h3.9c0.5,0,1-0.4,1-1v-4
				C18.9,12.8,18.4,12.4,17.9,12.4"/>
			<path id="Fill-3" class="st0" d="M26.4,12.4h-3.9c-0.5,0-1,0.4-1,1v4c0,0.5,0.4,1,1,1h3.9c0.5,0,1-0.4,1-1v-4
				C27.4,12.8,27,12.4,26.4,12.4"/>
			<path id="Fill-5" class="st0" d="M35,12.4h-4c-0.5,0-1,0.4-1,1v4c0,0.5,0.4,1,1,1h4c0.5,0,1-0.4,1-1v-4
				C35.9,12.8,35.5,12.4,35,12.4"/>
			<path id="Fill-7" class="st0" d="M17.9,21.8h-4c-0.5,0-1,0.4-1,1v4c0,0.5,0.4,1,1,1h3.9c0.5,0,1-0.4,1-1v-4
				C18.9,22.3,18.4,21.8,17.9,21.8"/>
			<path id="Fill-9" class="st0" d="M26.4,21.8h-3.9c-0.5,0-1,0.4-1,1v4c0,0.5,0.4,1,1,1h3.9c0.5,0,1-0.4,1-1v-4
				C27.4,22.3,27,21.8,26.4,21.8"/>
			<path id="Fill-11" class="st0" d="M35,21.8h-4c-0.5,0-1,0.4-1,1v4c0,0.5,0.4,1,1,1h4c0.5,0,1-0.4,1-1v-4
				C35.9,22.3,35.5,21.8,35,21.8"/>
			<path id="Fill-13" class="st0" d="M34.2,7.3c0.5,0,0.8,0.4,0.8,0.8c0,0.4-0.4,0.8-0.8,0.8c-0.5,0-0.8-0.4-0.8-0.8
				S33.7,7.3,34.2,7.3"/>
			<path id="Fill-15" class="st0" d="M10.8,37.2V5.1h26.6v32.2L10.8,37.2L10.8,37.2z M24,43.8c-1,0-1.9-0.8-1.9-1.9S22.9,40,24,40
				c1,0,1.9,0.8,1.9,1.9S25,43.8,24,43.8z M37.2,1.3H10.8C8.6,1.3,7,3,7,5.1V43c0,2.1,1.7,3.8,3.8,3.8h26.6c2.1,0,3.8-1.7,3.8-3.8
				V5.1C41,2.9,39.4,1.3,37.2,1.3z"/>
		</g>
	</g>
</g>
</svg>
