<?xml version="1.0" encoding="utf-8"?>
<!-- Generator: Adobe Illustrator 23.0.3, SVG Export Plug-In . SVG Version: 6.00 Build 0)  -->
<svg version="1.1" id="Livello_1" xmlns="http://www.w3.org/2000/svg" xmlns:xlink="http://www.w3.org/1999/xlink" x="0px" y="0px"
	 viewBox="0 0 48 48" style="enable-background:new 0 0 48 48;" xml:space="preserve">
<style type="text/css">
	.st0{fill-rule:evenodd;clip-rule:evenodd;fill:#B6BAC9;}
	.st1{fill-rule:evenodd;clip-rule:evenodd;fill:#232F5D;}
</style>
<title>Group 6</title>
<desc>Created with Sketch.</desc>
<g id="Page-1">
	<g id="Artboard-Copy-7" transform="translate(-684.000000, -709.000000)">
		<g id="Group-6" transform="translate(684.000000, 709.000000)">
			<path id="Fill-1" class="st0" d="M7.1,22.5c1.1,0,2.2-0.5,2.9-1.2l4.2,2.1c0,0.2-0.1,0.3-0.1,0.5c0,2.3,1.9,4.2,4.2,4.2
				s4.2-1.9,4.2-4.2c0-0.6-0.2-1.3-0.4-1.8l5.6-5.6c0.6,0.3,1.2,0.4,1.8,0.4c2.3,0,4.2-1.9,4.2-4.2c0-0.4-0.1-0.9-0.2-1.2l4.9-3.7
				c0.7,0.4,1.5,0.7,2.3,0.7c2.3,0,4.2-1.9,4.2-4.2c0-2.3-1.9-4.2-4.2-4.2c-2.3,0-4.2,1.9-4.2,4.2c0,0.4,0.1,0.9,0.2,1.2L32,9.1
				c-0.7-0.4-1.5-0.7-2.3-0.7c-2.3,0-4.2,1.9-4.2,4.2c0,0.6,0.2,1.3,0.4,1.8l-5.6,5.6c-0.6-0.3-1.2-0.4-1.8-0.4
				c-1.1,0-2.2,0.5-2.9,1.2l-4.2-2.1c0-0.2,0.1-0.3,0.1-0.5c0-2.3-1.9-4.2-4.2-4.2S2.9,16,2.9,18.3S4.8,22.5,7.1,22.5"/>
			<path id="Fill-3" class="st1" d="M46.6,45.2h-1.5V15.5c0-0.8-0.6-1.4-1.4-1.4h-5.6c-0.8,0-1.4,0.6-1.4,1.4v29.7h-2.8V23.9
				c0-0.8-0.6-1.4-1.4-1.4h-5.6c-0.8,0-1.4,0.6-1.4,1.4v21.3h-2.8v-10c0-0.8-0.6-1.4-1.4-1.4h-5.6c-0.8,0-1.4,0.6-1.4,1.4v10h-2.8
				V29.5c0-0.8-0.6-1.4-1.4-1.4H4.3c-0.8,0-1.4,0.6-1.4,1.4v15.7H1.4c-0.8,0-1.4,0.6-1.4,1.4S0.6,48,1.4,48h45.2
				c0.8,0,1.4-0.6,1.4-1.4S47.4,45.2,46.6,45.2"/>
		</g>
	</g>
</g>
</svg>
