<?xml version="1.0" encoding="utf-8"?>
<!-- Generator: Adobe Illustrator 22.1.0, SVG Export Plug-In . SVG Version: 6.00 Build 0)  -->
<svg version="1.1" id="Livello_1" xmlns="http://www.w3.org/2000/svg" xmlns:xlink="http://www.w3.org/1999/xlink" x="0px" y="0px"
	 viewBox="0 0 100 100" style="enable-background:new 0 0 100 100;" xml:space="preserve">
<style type="text/css">
	.st0{clip-path:url(#SVGID_2_);}
	.st1{clip-path:url(#SVGID_6_);}
	.st2{clip-path:url(#SVGID_10_);}
	.st3{clip-path:url(#SVGID_14_);}
	.st4{clip-path:url(#SVGID_18_);}
	.st5{clip-path:url(#SVGID_22_);}
	.st6{clip-path:url(#SVGID_26_);}
	.st7{clip-path:url(#SVGID_30_);}
</style>
<g>
	<defs>
		<path id="SVGID_1_" d="M53.2,64.7c1.6-0.1,3.1-1,4.1-2.4L72,40.8c0.4-0.7,0.4-1.6-0.2-2.1c-0.5-0.6-1.4-0.6-2-0.2L49.5,54
			c-1.3,1-2.1,2.6-2.3,4.3c-0.1,1.7,0.5,3.4,1.6,4.6c1,1.1,2.5,1.7,3.9,1.7C52.9,64.7,53.1,64.7,53.2,64.7 M50.4,58.6
			c0.1-0.8,0.4-1.5,1-1.9l12.3-9.5l-8.9,13.1c-0.4,0.6-1.1,1-1.8,1.1c-0.7,0-1.4-0.2-1.9-0.8C50.6,60.1,50.3,59.4,50.4,58.6"/>
	</defs>
	<use xlink:href="#SVGID_1_"  style="overflow:visible;fill-rule:evenodd;clip-rule:evenodd;fill:#FFFFFF;"/>
	<clipPath id="SVGID_2_">
		<use xlink:href="#SVGID_1_"  style="overflow:visible;"/>
	</clipPath>
	<g class="st0">
		<defs>
			<rect id="SVGID_3_" x="-101.3" y="-457.4" width="1782.1" height="1347.5"/>
		</defs>
		<use xlink:href="#SVGID_3_"  style="overflow:visible;fill:#FFFFFF;"/>
		<clipPath id="SVGID_4_">
			<use xlink:href="#SVGID_3_"  style="overflow:visible;"/>
		</clipPath>
	</g>
</g>
<g>
	<defs>
		<path id="SVGID_5_" d="M87.5,34.8C87.4,34.8,87.4,34.8,87.5,34.8c-1.7-2.7-3.6-5.1-5.7-7.3l3.4-3.2l2.3,2.1l6.7-6.4l-6.7-6.4
			l-6.7,6.4l2.3,2.1l-3.4,3.2c-2.3-2.1-4.9-3.9-7.6-5.4c0,0,0-0.1-0.1-0.1c0,0-0.1,0-0.1,0c-4.9-2.7-10.4-4.5-16.3-5.1v-1.8h2.4
			c2.2,0,4-1.7,4-3.8c0-2.1-1.8-3.8-4-3.8H43.4c-2.2,0-4,1.7-4,3.8c0,2.1,1.8,3.8,4,3.8h2.4v1.7c-1.7,0.2-3.4,0.4-5.1,0.8
			c-0.9,0.2-1.4,1-1.2,1.8c0.2,0.8,1,1.3,1.9,1.1c1.5-0.3,2.9-0.6,4.4-0.7l1.7-0.1c0.5,0,1-0.1,1.5-0.1v3c0,0.8,0.7,1.5,1.6,1.5
			c0.9,0,1.6-0.7,1.6-1.5v-3c6,0.3,11.6,1.8,16.6,4.3l-1.6,2.6c-0.4,0.7-0.2,1.6,0.6,2.1c0.3,0.1,0.5,0.2,0.8,0.2
			c0.5,0,1.1-0.3,1.4-0.8l1.6-2.6c5,3,9.2,7,12.4,11.7l-2.7,1.5c-0.8,0.4-1,1.3-0.6,2.1c0.3,0.5,0.8,0.8,1.4,0.8
			c0.3,0,0.5-0.1,0.8-0.2l2.7-1.5c2.7,4.8,4.3,10.3,4.5,16h-3.1c-0.9,0-1.6,0.7-1.6,1.5c0,0.8,0.7,1.5,1.6,1.5H90
			c-0.2,5.8-1.9,11.2-4.5,16l-2.7-1.5c-0.8-0.4-1.7-0.2-2.2,0.6c-0.4,0.7-0.2,1.6,0.6,2.1l2.7,1.5c-3.2,4.7-7.4,8.7-12.4,11.7
			L70,84.5c-0.4-0.7-1.4-1-2.2-0.6c-0.8,0.4-1,1.3-0.6,2.1l1.6,2.6c-5,2.5-10.6,4-16.6,4.3v-3c0-0.8-0.7-1.5-1.6-1.5
			c-0.9,0-1.6,0.7-1.6,1.5v3c-2.5-0.1-5.1-0.4-7.6-0.9c-0.9-0.2-1.7,0.3-1.9,1.1c-0.2,0.8,0.3,1.6,1.2,1.8c3.2,0.7,6.4,1,9.6,1
			c0.1,0,0.1,0,0.2,0c0,0,0,0,0,0c0,0,0,0,0,0c7.6-0.1,14.8-2,21-5.4c0.1,0,0.1,0,0.1-0.1c0,0,0.1,0,0.1-0.1
			c6.4-3.6,11.8-8.6,15.5-14.7c0,0,0.1-0.1,0.1-0.1c0,0,0-0.1,0-0.1c3.6-6,5.7-12.9,5.7-20.3C93.2,47.8,91.1,40.9,87.5,34.8
			C87.5,34.9,87.5,34.8,87.5,34.8z M87.4,17.8l2.2,2.1l-2.2,2.1l-2.3-2.1L87.4,17.8z M52.1,14.4c-0.6,0-1.1,0-1.6,0h-0.1h-0.1
			c-0.3,0-0.5,0-0.8,0c-0.2,0-0.4,0-0.6,0V9.9h-5.6c-0.4,0-0.8-0.3-0.8-0.8c0-0.4,0.4-0.8,0.8-0.8h14.3c0.4,0,0.8,0.3,0.8,0.8
			c0,0.4-0.4,0.8-0.8,0.8h-5.6V14.4z"/>
	</defs>
	<use xlink:href="#SVGID_5_"  style="overflow:visible;fill-rule:evenodd;clip-rule:evenodd;fill:#FFFFFF;"/>
	<clipPath id="SVGID_6_">
		<use xlink:href="#SVGID_5_"  style="overflow:visible;"/>
	</clipPath>
	<g class="st1">
		<defs>
			<rect id="SVGID_7_" x="-101.3" y="-457.4" width="1782.1" height="1347.5"/>
		</defs>
		<use xlink:href="#SVGID_7_"  style="overflow:visible;fill:#FFFFFF;"/>
		<clipPath id="SVGID_8_">
			<use xlink:href="#SVGID_7_"  style="overflow:visible;"/>
		</clipPath>
	</g>
</g>
<g>
	<defs>
		<path id="SVGID_9_" d="M34.7,25.7h-7.8c-0.9,0-1.6,0.7-1.6,1.6s0.7,1.6,1.6,1.6h7.8c0.9,0,1.6-0.7,1.6-1.6S35.6,25.7,34.7,25.7"/>
	</defs>
	<use xlink:href="#SVGID_9_"  style="overflow:visible;fill-rule:evenodd;clip-rule:evenodd;fill:#4DC0E2;"/>
	<clipPath id="SVGID_10_">
		<use xlink:href="#SVGID_9_"  style="overflow:visible;"/>
	</clipPath>
	<g class="st2">
		<defs>
			<rect id="SVGID_11_" x="-101.3" y="-457.4" width="1782.1" height="1347.5"/>
		</defs>
		<clipPath id="SVGID_12_">
			<use xlink:href="#SVGID_11_"  style="overflow:visible;"/>
		</clipPath>
	</g>
</g>
<g>
	<defs>
		<path id="SVGID_13_" d="M34.9,36.6H20.5c-0.8,0-1.4,0.7-1.4,1.6c0,0.9,0.6,1.6,1.4,1.6h14.3c0.8,0,1.4-0.7,1.4-1.6
			C36.3,37.3,35.6,36.6,34.9,36.6"/>
	</defs>
	<use xlink:href="#SVGID_13_"  style="overflow:visible;fill-rule:evenodd;clip-rule:evenodd;fill:#4DC0E2;"/>
	<clipPath id="SVGID_14_">
		<use xlink:href="#SVGID_13_"  style="overflow:visible;"/>
	</clipPath>
	<g class="st3">
		<defs>
			<rect id="SVGID_15_" x="-101.3" y="-457.4" width="1782.1" height="1347.5"/>
		</defs>
		<clipPath id="SVGID_16_">
			<use xlink:href="#SVGID_15_"  style="overflow:visible;"/>
		</clipPath>
	</g>
</g>
<g>
	<defs>
		<path id="SVGID_17_" d="M34.7,47.5H11.3c-0.9,0-1.6,0.7-1.6,1.6c0,0.9,0.7,1.6,1.6,1.6h23.4c0.9,0,1.6-0.7,1.6-1.6
			C36.3,48.2,35.6,47.5,34.7,47.5"/>
	</defs>
	<use xlink:href="#SVGID_17_"  style="overflow:visible;fill-rule:evenodd;clip-rule:evenodd;fill:#4DC0E2;"/>
	<clipPath id="SVGID_18_">
		<use xlink:href="#SVGID_17_"  style="overflow:visible;"/>
	</clipPath>
	<g class="st4">
		<defs>
			<rect id="SVGID_19_" x="-101.3" y="-457.4" width="1782.1" height="1347.5"/>
		</defs>
		<clipPath id="SVGID_20_">
			<use xlink:href="#SVGID_19_"  style="overflow:visible;"/>
		</clipPath>
	</g>
</g>
<g>
	<defs>
		<path id="SVGID_21_" d="M34.8,58.5H6.5C5.7,58.5,5,59.2,5,60c0,0.9,0.7,1.6,1.5,1.6h28.3c0.8,0,1.5-0.7,1.5-1.6
			C36.3,59.2,35.6,58.5,34.8,58.5"/>
	</defs>
	<use xlink:href="#SVGID_21_"  style="overflow:visible;fill-rule:evenodd;clip-rule:evenodd;fill:#4DC0E2;"/>
	<clipPath id="SVGID_22_">
		<use xlink:href="#SVGID_21_"  style="overflow:visible;"/>
	</clipPath>
	<g class="st5">
		<defs>
			<rect id="SVGID_23_" x="-101.3" y="-457.4" width="1782.1" height="1347.5"/>
		</defs>
		<clipPath id="SVGID_24_">
			<use xlink:href="#SVGID_23_"  style="overflow:visible;"/>
		</clipPath>
	</g>
</g>
<g>
	<defs>
		<path id="SVGID_25_" d="M34.6,69.4H13c-0.9,0-1.7,0.7-1.7,1.6c0,0.9,0.7,1.6,1.7,1.6h21.7c0.9,0,1.7-0.7,1.7-1.6
			C36.3,70.1,35.5,69.4,34.6,69.4"/>
	</defs>
	<use xlink:href="#SVGID_25_"  style="overflow:visible;fill-rule:evenodd;clip-rule:evenodd;fill:#4DC0E2;"/>
	<clipPath id="SVGID_26_">
		<use xlink:href="#SVGID_25_"  style="overflow:visible;"/>
	</clipPath>
	<g class="st6">
		<defs>
			<rect id="SVGID_27_" x="-101.3" y="-457.4" width="1782.1" height="1347.5"/>
		</defs>
		<clipPath id="SVGID_28_">
			<use xlink:href="#SVGID_27_"  style="overflow:visible;"/>
		</clipPath>
	</g>
</g>
<g>
	<defs>
		<path id="SVGID_29_" d="M34.9,80.4h-9.7c-0.8,0-1.4,0.7-1.4,1.6c0,0.9,0.6,1.6,1.4,1.6h9.7c0.8,0,1.4-0.7,1.4-1.6
			C36.3,81.1,35.7,80.4,34.9,80.4"/>
	</defs>
	<use xlink:href="#SVGID_29_"  style="overflow:visible;fill-rule:evenodd;clip-rule:evenodd;fill:#4DC0E2;"/>
	<clipPath id="SVGID_30_">
		<use xlink:href="#SVGID_29_"  style="overflow:visible;"/>
	</clipPath>
	<g class="st7">
		<defs>
			<rect id="SVGID_31_" x="-101.3" y="-457.4" width="1782.1" height="1347.5"/>
		</defs>
		<clipPath id="SVGID_32_">
			<use xlink:href="#SVGID_31_"  style="overflow:visible;"/>
		</clipPath>
	</g>
</g>
</svg>
