<?xml version="1.0" encoding="utf-8"?>
<!-- Generator: Adobe Illustrator 23.0.3, SVG Export Plug-In . SVG Version: 6.00 Build 0)  -->
<svg version="1.1" id="Capa_1" xmlns="http://www.w3.org/2000/svg" xmlns:xlink="http://www.w3.org/1999/xlink" x="0px" y="0px"
	 viewBox="0 0 48 48" style="enable-background:new 0 0 48 48;" xml:space="preserve">
<style type="text/css">
	.st0{fill:#232F5D;}
	.st1{fill:#B6BAC9;}
</style>
<path class="st0" d="M45.5,9.2c-0.2-0.4-0.6-0.7-1.1-0.8L19.8,2.5c-0.8-0.2-1.6,0.3-1.9,1.1L8.5,27.4l3.1,1.1l8.9-22.6l21.4,5.5
	c-1.3,4.1-4.5,12.8-7.6,20.8c-2.7,7-4.2,9.4-7.1,9.9c0,0,0,0,0,0c-5.9,0.8-5.8-6.7-5.8-6.7l-19-7.7c-1.3,8.5,5.2,10.6,5.2,10.6
	l13.9,6.3c0,0,2.2,1,4.5,0.9c6.3-0.1,8.6-4.8,11.4-12.1c4-10.7,8.1-22.6,8.2-22.8C45.8,10.1,45.7,9.6,45.5,9.2z"/>
<path class="st1" d="M34.3,18.8c0.1,0,0.3,0.1,0.4,0.1c0.7,0,1.4-0.5,1.6-1.2c0.2-0.9-0.3-1.8-1.2-2l-7.2-2.2
	c-0.9-0.2-1.8,0.3-2,1.2c-0.2,0.9,0.3,1.8,1.2,2L34.3,18.8z"/>
<path class="st1" d="M23,21.2c-0.3,0.9,0.2,1.8,1.1,2.1l7.2,2.6c0.2,0.1,0.3,0.1,0.5,0.1c0.7,0,1.4-0.4,1.6-1.1
	c0.3-0.9-0.2-1.8-1.1-2.1l-7.2-2.6C24.2,19.9,23.3,20.4,23,21.2z"/>
<path class="st1" d="M22.4,27.1c-0.9-0.3-1.8,0.2-2.1,1.1c-0.3,0.9,0.2,1.8,1.1,2.1l7.2,2.6c0.2,0.1,0.3,0.1,0.5,0.1
	c0.7,0,1.4-0.4,1.6-1.1c0.3-0.9-0.2-1.8-1.1-2.1L22.4,27.1z"/>
<path class="st1" d="M22.1,11.5c1,0,1.8,0.8,1.8,1.8c0,1-0.8,1.8-1.8,1.8c-1,0-1.8-0.8-1.8-1.8C20.2,12.3,21.1,11.5,22.1,11.5z"/>
<path class="st1" d="M19.5,18.1c1,0,1.8,0.8,1.8,1.8c0,1-0.8,1.8-1.8,1.8c-1,0-1.8-0.8-1.8-1.8C17.6,18.9,18.5,18.1,19.5,18.1z"/>
<path class="st1" d="M16.7,25c1,0,1.8,0.8,1.8,1.8c0,1-0.8,1.8-1.8,1.8c-1,0-1.8-0.8-1.8-1.8C14.8,25.8,15.7,25,16.7,25z"/>
</svg>
