<?xml version="1.0" encoding="utf-8"?>
<!-- Generator: Adobe Illustrator 23.0.3, SVG Export Plug-In . SVG Version: 6.00 Build 0)  -->
<svg version="1.1" id="Livello_1" xmlns="http://www.w3.org/2000/svg" xmlns:xlink="http://www.w3.org/1999/xlink" x="0px" y="0px"
	 viewBox="0 0 48 48" style="enable-background:new 0 0 48 48;" xml:space="preserve">
<style type="text/css">
	.st0{fill-rule:evenodd;clip-rule:evenodd;fill:#B6BAC9;}
	.st1{fill-rule:evenodd;clip-rule:evenodd;fill:#232F5D;}
</style>
<title>Group 2</title>
<desc>Created with Sketch.</desc>
<g id="Page-1">
	<g id="Artboard-Copy-7" transform="translate(-102.000000, -815.000000)">
		<g id="Group-2" transform="translate(102.000000, 815.000000)">
			<path id="Fill-1" class="st0" d="M36,39.8l-7.8-5.2c-0.3-0.2-0.8-0.2-1.1,0.2L25,37.7c-0.7,1-2.1,1.2-3.1,0.6l-0.4-0.2
				c-1.5-0.8-3.4-1.9-7.1-5.6c-3.7-3.7-4.7-5.7-5.6-7.2l-0.2-0.4c-0.6-1.1-0.3-2.4,0.6-3.1l2.9-2.3c0.3-0.3,0.4-0.7,0.2-1.1
				l-5.2-7.8c-0.3-0.4-0.7-0.5-1.1-0.3l-3.2,2c-0.7,0.4-1.2,1.1-1.4,1.9C0.3,18.1,1.2,25,11.5,35.4s17.1,11.3,21,10.2
				c0.8-0.2,1.4-0.7,1.8-1.4l1.9-3.3C36.5,40.5,36.4,40,36,39.8"/>
			<path id="Fill-3" class="st1" d="M44.8,26.4c-0.2,0.2-0.4,0.2-0.6,0.2c-0.2,0-0.4-0.1-0.6-0.3l-8.4-9.1c-0.3-0.3-0.3-0.8,0.1-1.1
				c0.3-0.3,0.8-0.3,1.1,0l8.4,9.1C45.1,25.5,45.1,26,44.8,26.4 M29.3,16.6c-0.6,0-1.2-0.2-1.6-0.5L14,5.5c-0.4-0.3-0.4-0.8-0.2-1.2
				C14.1,4,14.6,3.9,15,4.2l13.7,10.5c0.4,0.3,0.9,0.3,1.3,0L43.7,4.2c0.4-0.3,0.9-0.2,1.2,0.2s0.2,0.9-0.2,1.2L31,16
				C30.5,16.4,29.9,16.6,29.3,16.6 M23.5,17.2L23.5,17.2l-8.4,9.1c-0.3,0.3-0.8,0.4-1.2,0c-0.3-0.3-0.4-0.8,0-1.2l8.4-9.1
				c0.3-0.3,0.8-0.4,1.2,0C23.8,16.4,23.8,16.9,23.5,17.2 M46.9,2.1C46.8,2,46.7,2,46.5,2H12.1c-0.1,0-0.2,0-0.3,0.1
				c-0.1,0.1-0.1,0.2-0.1,0.3v12.1l2,3c0.7,1.1,0.5,2.5-0.5,3.3l-2.9,2.3c-0.3,0.2-0.4,0.7-0.2,1l0.2,0.4c0.8,1.4,1.7,2.8,2.7,4
				h33.6c0.2,0,0.4-0.2,0.5-0.4V2.5C47,2.3,46.9,2.2,46.9,2.1"/>
		</g>
	</g>
</g>
</svg>
