<?xml version="1.0" encoding="utf-8"?>
<!-- Generator: Adobe Illustrator 23.0.3, SVG Export Plug-In . SVG Version: 6.00 Build 0)  -->
<svg version="1.1" id="Livello_1" xmlns="http://www.w3.org/2000/svg" xmlns:xlink="http://www.w3.org/1999/xlink" x="0px" y="0px"
	 viewBox="0 0 48 48" style="enable-background:new 0 0 48 48;" xml:space="preserve">
<style type="text/css">
	.st0{fill-rule:evenodd;clip-rule:evenodd;fill:#B6BAC9;}
	.st1{fill-rule:evenodd;clip-rule:evenodd;fill:#232F5D;}
</style>
<title>Group 7</title>
<desc>Created with Sketch.</desc>
<g id="Page-1">
	<g id="Artboard-Copy-7" transform="translate(-688.000000, -610.000000)">
		<g id="Group-7" transform="translate(688.000000, 610.000000)">
			<path id="Fill-1" class="st0" d="M45,39.5l-5.3-11.3c-3,4.2-7.5,7.3-13,8.2l4.5,9.4c0.6,1.2,2.3,1.1,2.8-0.1l2.3-6.2l0.5-0.2
				l6.3,2.2C44.4,41.9,45.6,40.7,45,39.5"/>
			<path id="Fill-4" class="st1" d="M32.4,15.8l-3,2.8l0.7,4c0.2,1.2-1.1,2.1-2.2,1.6l-3.7-1.9l-3.7,1.9c-1.1,0.6-2.5-0.4-2.2-1.6
				l0.7-4l-3-2.8c-0.9-0.9-0.4-2.3,0.9-2.5l4.1-0.6l1.9-3.6c0.6-1.1,2.2-1.1,2.7,0l1.9,3.6l4.1,0.6C32.9,13.5,33.4,15,32.4,15.8
				 M23.6,0.9c-9.2,0-16.7,7.5-16.7,16.7s7.5,16.7,16.7,16.7s16.7-7.5,16.7-16.7S32.8,0.9,23.6,0.9"/>
			<path id="Fill-6" class="st0" d="M7.5,28.2L2.1,39.5c-0.6,1.2,0.6,2.5,1.9,2l6.4-2.2l0.5,0.2l2.3,6.2c0.5,1.2,2.2,1.4,2.8,0.1
				l4.5-9.4C15.1,35.4,10.5,32.4,7.5,28.2"/>
		</g>
	</g>
</g>
</svg>
