<?xml version="1.0" encoding="utf-8"?>
<!-- Generator: Adobe Illustrator 23.0.3, SVG Export Plug-In . SVG Version: 6.00 Build 0)  -->
<svg version="1.1" id="Livello_1" xmlns="http://www.w3.org/2000/svg" xmlns:xlink="http://www.w3.org/1999/xlink" x="0px" y="0px"
	 viewBox="0 0 48 48" style="enable-background:new 0 0 48 48;" xml:space="preserve">
<style type="text/css">
	.st0{fill-rule:evenodd;clip-rule:evenodd;fill:#B6BAC9;}
	.st1{filter:url(#Adobe_OpacityMaskFilter);}
	.st2{fill-rule:evenodd;clip-rule:evenodd;fill:#FFFFFF;}
	.st3{mask:url(#mask-2_1_);fill-rule:evenodd;clip-rule:evenodd;fill:#232F5D;}
	.st4{filter:url(#Adobe_OpacityMaskFilter_1_);}
	.st5{mask:url(#mask-2_2_);fill-rule:evenodd;clip-rule:evenodd;fill:#232F5D;}
	.st6{filter:url(#Adobe_OpacityMaskFilter_2_);}
	.st7{mask:url(#mask-2_3_);fill-rule:evenodd;clip-rule:evenodd;fill:#232F5D;}
</style>
<title>Group</title>
<desc>Created with Sketch.</desc>
<g id="Page-1">
	<g id="Group">
		<g id="Group-4">
			<path id="Fill-1" class="st0" d="M46.4,29.4c-1.4-0.9-2.2-2.3-2.6-3.4c2.3-2.5,3.7-5.7,3.7-9.2c0-8.1-7.5-14.7-16.7-14.7
				c-8.2,0-15,5.2-16.4,12.1c0.8-0.1,1.6-0.1,2.4-0.1c10.3,0,18.7,7.4,19.1,16.7c1.4-0.4,2.7-0.9,3.9-1.6c2.3,1.4,4.9,1.4,6.4,1.2
				C46.6,30.2,46.7,29.6,46.4,29.4"/>
			<g id="Clip-5">
			</g>
			<defs>
				<filter id="Adobe_OpacityMaskFilter" filterUnits="userSpaceOnUse" x="0.5" y="16.9" width="32.6" height="29.1">
					<feColorMatrix  type="matrix" values="1 0 0 0 0  0 1 0 0 0  0 0 1 0 0  0 0 0 1 0"/>
				</filter>
			</defs>
			<mask maskUnits="userSpaceOnUse" x="0.5" y="16.9" width="32.6" height="29.1" id="mask-2_1_">
				<g class="st1">
					<polygon id="path-1_1_" class="st2" points="0.5,16.9 33.1,16.9 33.1,46 0.5,46 					"/>
				</g>
			</mask>
			<path id="Fill-4" class="st3" d="M16.8,43.1c-2.6,0-5.2-0.7-7.4-1.9l-0.7-0.4L8,41.2c-0.7,0.4-1.5,0.7-2.4,0.8
				c0.4-0.6,0.7-1.2,1-1.9l0.3-0.8l-0.6-0.6c-1.9-2.1-2.9-4.6-2.9-7.3c0-6.5,6.1-11.7,13.5-11.7S30.3,25,30.3,31.4
				C30.3,37.9,24.3,43.1,16.8,43.1 M16.8,16.9c-9,0-16.3,6.5-16.3,14.5c0,3,1.1,6,3.1,8.5c-0.4,0.7-0.9,1.2-1.5,1.6
				c-0.6,0.4-1,1.2-0.8,1.9c0.2,0.7,0.8,1.3,1.5,1.4C3.4,45,3.9,45,4.4,45c1.6,0,3-0.3,4.3-0.9c2.5,1.3,5.2,1.9,8.1,1.9
				c9,0,16.3-6.5,16.3-14.5C33.1,23.4,25.8,16.9,16.8,16.9"/>
			<defs>
				<filter id="Adobe_OpacityMaskFilter_1_" filterUnits="userSpaceOnUse" x="15.5" y="24.5" width="3.6" height="3.7">
					<feColorMatrix  type="matrix" values="1 0 0 0 0  0 1 0 0 0  0 0 1 0 0  0 0 0 1 0"/>
				</filter>
			</defs>
			<mask maskUnits="userSpaceOnUse" x="15.5" y="24.5" width="3.6" height="3.7" id="mask-2_2_">
				<g class="st4">
					<polygon id="path-1_2_" class="st2" points="0.5,16.9 33.1,16.9 33.1,46 0.5,46 					"/>
				</g>
			</mask>
			<path id="Fill-7" class="st5" d="M17.3,28.2c1,0,1.8-0.8,1.8-1.8c0-1-0.8-1.8-1.8-1.8c-1,0-1.8,0.8-1.8,1.8
				C15.5,27.4,16.3,28.2,17.3,28.2"/>
			<defs>
				<filter id="Adobe_OpacityMaskFilter_2_" filterUnits="userSpaceOnUse" x="13.8" y="29" width="6.1" height="9.3">
					<feColorMatrix  type="matrix" values="1 0 0 0 0  0 1 0 0 0  0 0 1 0 0  0 0 0 1 0"/>
				</filter>
			</defs>
			<mask maskUnits="userSpaceOnUse" x="13.8" y="29" width="6.1" height="9.3" id="mask-2_3_">
				<g class="st6">
					<polygon id="path-1_3_" class="st2" points="0.5,16.9 33.1,16.9 33.1,46 0.5,46 					"/>
				</g>
			</mask>
			<path id="Fill-9" class="st7" d="M19.4,36.4c-0.2,0.1-0.3,0.2-0.5,0.3c-0.2,0.1-0.4,0.2-0.7,0.2c-0.3,0-0.5-0.1-0.5-0.4
				c0-0.2-0.1-0.4-0.1-0.6c0-0.4,0.1-0.9,0.2-1.3c0.2-1.3,0.5-2.6,0.7-3.9c0.1-0.3,0.1-0.7,0.1-1.1c0-0.4-0.3-0.6-0.7-0.6h-1.8h-1.7
				c-0.1,0-0.3,0-0.4,0c-0.3,0-0.4,0.2-0.4,0.4c0,0.2,0.1,0.4,0.3,0.5c0.2,0.1,0.4,0.1,0.6,0.1c0.5,0.1,0.6,0.2,0.6,0.7
				c0,0.1,0,0.1,0,0.2c-0.2,1.1-0.4,2.3-0.6,3.4c-0.1,0.7-0.2,1.3-0.3,2c-0.1,1,0.8,1.9,1.5,2c0.4,0.1,0.9,0.1,1.3,0.1
				c0.9,0,1.7-0.4,2.4-1.1c0.1-0.1,0.2-0.3,0.2-0.4C19.9,36.5,19.7,36.3,19.4,36.4"/>
		</g>
	</g>
</g>
</svg>
