<?xml version="1.0"?>
<svg xmlns="http://www.w3.org/2000/svg" height="512px" viewBox="0 0 496 496" width="512px"><path d="m470.855469 363.878906c-1.441407-2.40625-4.039063-3.878906-6.855469-3.878906h-43.472656l-19.199219-32 19.199219-32h43.472656c2.816406 0 5.414062-1.472656 6.855469-3.878906l24-40c1.519531-2.535156 1.519531-5.695313 0-8.234375l-24-40c-1.441407-2.414063-4.039063-3.886719-6.855469-3.886719h-7l14.488281-123.128906c14.382813-6.0625 24.511719-20.304688 24.511719-36.871094 0-22.054688-17.945312-40-40-40s-40 17.945312-40 40c0 8.136719 2.472656 15.695312 6.664062 22.023438l-30.511718 30.511718c-4.761719-2.816406-10.230469-4.535156-16.152344-4.535156-17.648438 0-32 14.351562-32 32s14.351562 32 32 32c.992188 0 1.9375-.207031 2.902344-.296875l27.976562 55.945313-19.40625 32.351562h-38.945312l-21.671875-36.121094-13.71875 8.234375 21.535156 35.886719-9.601563 16-9.597656 16h-43.472656v16h43.472656l21.671875 36.121094c1.441407 2.40625 4.039063 3.878906 6.855469 3.878906h43.472656l19.199219 32-9.601563 16-9.597656 16h-43.472656c-2.816406 0-5.414062 1.472656-6.855469 3.878906l-21.671875 36.121094h-38.9375l-9.597656-16-9.601562-16 9.601562-16 9.597656-16h43.464844v-16h-43.472656l-21.671875-36.121094c-1.441407-2.40625-4.039063-3.878906-6.855469-3.878906h-43.472656l-21.671875-36.121094-13.71875 8.234375 21.535156 35.886719-9.601563 16-9.597656 16h-38.9375l-21.671875-36.121094-13.71875 8.234375 24 40c1.441407 2.414063 4.039063 3.886719 6.855469 3.886719h43.472656l19.199219 32-21.527344 35.878906 13.71875 8.234375 21.664063-36.113281h38.9375l9.597656 16 9.601562 16-21.527343 35.878906 13.71875 8.234375 21.671875-36.113281h38.945312l21.671875 36.121094c1.441407 2.40625 4.039063 3.878906 6.855469 3.878906h48c2.816406 0 5.414062-1.472656 6.855469-3.878906l21.671875-36.121094h43.472656c2.816406 0 5.414062-1.472656 6.855469-3.878906l24-40c1.519531-2.535156 1.519531-5.695313 0-8.234375zm7.816406-115.878906-19.199219 32h-38.9375l-9.597656-16-9.601562-16 19.199218-32h38.9375zm-22.671875-232c13.230469 0 24 10.769531 24 24s-10.769531 24-24 24-24-10.769531-24-24 10.769531-24 24-24zm-96 104c0-8.824219 7.175781-16 16-16s16 7.175781 16 16-7.175781 16-16 16-16-7.175781-16-16zm48 0c0-5.921875-1.71875-11.390625-4.535156-16.152344l30.511718-30.511718c6.0625 4.015624 13.28125 6.367187 21.039063 6.566406l-14.128906 120.097656h-19.941407l-26.832031-53.664062c8.375-5.777344 13.886719-15.414063 13.886719-26.335938zm-59.472656 200-19.199219-32 9.601563-16 9.597656-16h38.9375l9.597656 16 9.601562 16-19.199218 32zm-163.199219 48 9.601563-16 9.597656-16h38.9375l19.199218 32-9.601562 16-9.597656 16h-38.9375zm202.144531 112h-38.9375l-19.199218-32 9.601562-16 9.597656-16h38.9375l9.597656 16 9.601563 16zm72-40h-38.9375l-9.597656-16-9.601562-16 9.601562-16 9.597656-16h38.9375l19.199219 32zm0 0" fill="#10d775"/><path d="m32 168c2.632812 0 5.152344-.40625 7.601562-1.007812l26.710938 49.625c-6.304688 5.847656-10.3125 14.125-10.3125 23.382812 0 17.648438 14.351562 32 32 32 14.871094 0 27.289062-10.238281 30.863281-24h66.273438c3.574219 13.761719 15.992187 24 30.863281 24 17.648438 0 32-14.351562 32-32 0-9.257812-4.015625-17.542969-10.320312-23.390625l26.71875-49.625c2.449218.609375 4.96875 1.015625 7.601562 1.015625 17.648438 0 32-14.351562 32-32s-14.351562-32-32-32c-2.632812 0-5.152344.40625-7.601562 1.007812l-26.71875-49.625c6.304687-5.839843 10.320312-14.125 10.320312-23.382812 0-17.648438-14.351562-32-32-32-14.871094 0-27.289062 10.238281-30.863281 24h-66.273438c-3.574219-13.761719-15.992187-24-30.863281-24-17.648438 0-32 14.351562-32 32 0 9.257812 4.015625 17.542969 10.320312 23.390625l-26.71875 49.625c-2.449218-.609375-4.96875-1.015625-7.601562-1.015625-17.648438 0-32 14.351562-32 32s14.351562 32 32 32zm21.6875-8.617188c4.410156-4.085937 7.617188-9.382812 9.175781-15.382812h36.609375l18.808594 31.34375-26.433594 33.039062c-1.28125-.152343-2.535156-.382812-3.847656-.382812-2.632812 0-5.152344.40625-7.601562 1.007812zm78.839844-55.382812h38.9375l19.199218 32-19.199218 32h-38.9375l-19.199219-32zm-44.527344 152c-8.824219 0-16-7.175781-16-16s7.175781-16 16-16 16 7.175781 16 16-7.175781 16-16 16zm97.136719-24h-66.273438c-1.824219-7.015625-5.941406-13.054688-11.542969-17.34375l24.527344-30.65625h40.304688l24.527344 30.65625c-5.601563 4.289062-9.71875 10.328125-11.542969 17.34375zm30.863281 24c-8.824219 0-16-7.175781-16-16s7.175781-16 16-16 16 7.175781 16 16-7.175781 16-16 16zm7.59375-46.992188c-2.441406-.601562-4.960938-1.007812-7.59375-1.007812-1.3125 0-2.566406.230469-3.839844.390625l-26.433594-33.039063 18.800782-31.351562h36.609375c1.558593 6 4.765625 11.296875 9.175781 15.382812zm64.40625-73.007812c0 8.824219-7.175781 16-16 16s-16-7.175781-16-16 7.175781-16 16-16 16 7.175781 16 16zm-37.6875-23.382812c-4.410156 4.09375-7.617188 9.390624-9.175781 15.382812h-36.609375l-18.808594-31.34375 26.433594-33.039062c1.28125.152343 2.535156.382812 3.847656.382812 2.632812 0 5.152344-.40625 7.59375-1.007812zm-34.3125-96.617188c8.824219 0 16 7.175781 16 16s-7.175781 16-16 16-16-7.175781-16-16 7.175781-16 16-16zm-97.136719 24h66.273438c1.824219 7.015625 5.941406 13.054688 11.542969 17.34375l-24.527344 30.65625h-40.304688l-24.527344-30.65625c5.601563-4.289062 9.71875-10.328125 11.542969-17.34375zm-30.863281-24c8.824219 0 16 7.175781 16 16s-7.175781 16-16 16-16-7.175781-16-16 7.175781-16 16-16zm-7.59375 46.992188c2.441406.601562 4.960938 1.007812 7.59375 1.007812 1.3125 0 2.566406-.230469 3.839844-.390625l26.433594 33.039063-18.800782 31.351562h-36.609375c-1.558593-6-4.765625-11.296875-9.175781-15.382812zm-48.40625 57.007812c8.824219 0 16 7.175781 16 16s-7.175781 16-16 16-16-7.175781-16-16 7.175781-16 16-16zm0 0" fill="#10d775"/><path d="m96 416c-5.328125 0-10.398438 1.097656-15.054688 2.992188l-25.175781-37.769532c5.054688-5.65625 8.230469-13.046875 8.230469-21.222656 0-17.648438-14.351562-32-32-32s-32 14.351562-32 32 14.351562 32 32 32c3.679688 0 7.160156-.753906 10.457031-1.894531l25.167969 37.757812c-7.175781 7.226563-11.625 17.167969-11.625 28.136719 0 22.054688 17.945312 40 40 40s40-17.945312 40-40-17.945312-40-40-40zm-80-56c0-8.824219 7.175781-16 16-16s16 7.175781 16 16-7.175781 16-16 16-16-7.175781-16-16zm80 120c-13.230469 0-24-10.769531-24-24s10.769531-24 24-24 24 10.769531 24 24-10.769531 24-24 24zm0 0" fill="#10d775"/></svg>
